<?xml version="1.0" encoding="UTF-8" standalone="no"?>
<!-- Generator: Adobe Illustrator 12.0.1, SVG Export Plug-In . SVG Version: 6.00 Build 51448)  -->
<svg
   xmlns:dc="http://purl.org/dc/elements/1.1/"
   xmlns:cc="http://web.resource.org/cc/"
   xmlns:rdf="http://www.w3.org/1999/02/22-rdf-syntax-ns#"
   xmlns:svg="http://www.w3.org/2000/svg"
   xmlns="http://www.w3.org/2000/svg"
   xmlns:sodipodi="http://sodipodi.sourceforge.net/DTD/sodipodi-0.dtd"
   xmlns:inkscape="http://www.inkscape.org/namespaces/inkscape"
   version="1.1"
   id="Layer_1"
   width="292.963"
   height="186.781"
   viewBox="0 0 292.963 186.781"
   style="overflow:visible;enable-background:new 0 0 292.963 186.781;"
   xml:space="preserve"
   sodipodi:version="0.32"
   inkscape:version="0.45.1"
   sodipodi:docname="Estron.svg"
   inkscape:output_extension="org.inkscape.output.svg.inkscape"
   sodipodi:docbase="C:\"><metadata
   id="metadata108"><rdf:RDF><cc:Work
       rdf:about=""><dc:format>image/svg+xml</dc:format><dc:type
         rdf:resource="http://purl.org/dc/dcmitype/StillImage" /></cc:Work></rdf:RDF></metadata><defs
   id="defs106" /><sodipodi:namedview
   inkscape:window-height="579"
   inkscape:window-width="801"
   inkscape:pageshadow="2"
   inkscape:pageopacity="0.0"
   guidetolerance="10.0"
   gridtolerance="10.0"
   objecttolerance="10.0"
   borderopacity="1.0"
   bordercolor="#666666"
   pagecolor="#ffffff"
   id="base"
   inkscape:zoom="2.0237604"
   inkscape:cx="146.48151"
   inkscape:cy="93.390503"
   inkscape:window-x="176"
   inkscape:window-y="176"
   inkscape:current-layer="Layer_1" />
<path
   d="M 64.146425,153.56685 L 63.337975,154.04185 L 62.530475,153.56685 L 62.530475,115.85185 L 64.146425,116.80185 L 64.146425,153.56685 z "
   id="polygon3" />
<path
   d="M 96.017975,171.94935 L 96.017975,173.80185 L 63.337975,154.99185 L 63.337975,154.04185 L 64.146425,153.56685 L 96.017975,171.94935 z "
   id="polygon5" />
<path
   d="M 96.398925,165.67935 L 95.591425,167.0578 L 68.611425,151.47685 L 69.417975,150.05185 L 96.398925,165.67935 z "
   id="polygon7" />
<path
   d="M 127.84297,116.80185 L 128.65048,116.32685 L 129.45892,116.80185 L 129.45892,153.56685 L 128.65048,154.04185 L 127.84297,153.56685 L 127.84297,116.80185 z "
   id="polygon9" />
<path
   d="M 122.19142,119.60435 L 123.80642,119.60435 L 123.80642,150.76435 L 122.19142,150.76435 L 122.19142,119.60435 z "
   id="rect11" />
<path
   d="M 96.017975,98.4203 L 96.017975,96.56685 L 128.65048,115.42435 L 128.65048,116.32685 L 127.84297,116.80185 L 96.017975,98.4203 z "
   id="polygon13" />
<path
   d="M 64.146425,116.80185 L 62.530475,115.85185 L 96.017975,96.56685 L 96.017975,98.4203 L 64.146425,116.80185 z "
   id="polygon15" />
<path
   d="M 69.417975,120.31685 L 68.611425,118.89185 L 95.591425,103.31185 L 96.398925,104.73685 L 69.417975,120.31685 z "
   id="polygon17" />
<path
   d="M 161.28392,171.94935 L 161.28392,173.80185 L 128.65048,154.99185 L 128.65048,154.04185 L 129.45892,153.56685 L 161.28392,171.94935 z "
   id="polygon19" />
<path
   d="M 193.15548,153.56685 L 194.77142,154.51685 L 161.28392,173.80185 L 161.28392,171.94935 L 193.15548,153.56685 z "
   id="polygon21" />
<path
   d="M 193.15548,116.80185 L 193.96392,116.32685 L 194.77142,116.80185 L 194.77142,154.51685 L 193.15548,153.56685 L 193.15548,116.80185 z "
   id="polygon23" />
<path
   d="M 161.28392,98.4203 L 161.28392,97.4703 L 162.09048,97.04185 L 192.96548,114.85435 L 193.96392,116.32685 L 193.15548,116.80185 L 161.28392,98.4203 z "
   id="polygon25" />
<path
   d="M 225.78892,60.22935 L 226.59642,59.80185 L 227.40298,60.3728 L 227.40298,96.89935 L 226.59642,97.4703 L 225.78892,97.04185 L 225.78892,60.22935 z "
   id="polygon27" />
<path
   d="M 193.96392,41.8478 L 193.96392,39.9953 L 225.69297,58.32935 L 226.59642,59.80185 L 225.78892,60.22935 L 193.96392,41.8478 z "
   id="polygon29" />
<path
   d="M 162.09048,60.22935 L 160.47642,59.32685 L 193.96392,39.9953 L 193.96392,41.8478 L 162.09048,60.22935 z "
   id="polygon31" />
<path
   d="M 162.09048,97.04185 L 161.28392,97.4703 L 160.47642,97.04185 L 160.47642,59.32685 L 162.09048,60.22935 L 162.09048,97.04185 z "
   id="polygon33" />
<g
   id="g35"
   transform="matrix(0.95,0,0,0.95,7.324075,4.66955)">
	<path
   d="M 224.15,146.834 L 224.15,129.646 L 226.431,129.646 L 226.431,136.709 L 235.322,136.709 L 235.322,129.646 L 237.603,129.646 L 237.603,146.834 L 235.322,146.834 L 235.322,138.74 L 226.431,138.74 L 226.431,146.834 L 224.15,146.834 z "
   id="path37" />
</g>
<path
   d="M 230.25297,125.68435 L 222.98643,125.68435 L 223.17642,124.0703 L 230.06392,124.0703 L 230.25297,125.68435 z "
   id="polygon39" />
<path
   d="M 229.73047,121.17185 L 223.50892,121.17185 L 223.69893,119.5578 L 229.54047,119.5578 L 229.73047,121.17185 z "
   id="polygon41" />
<path
   d="M 229.20892,116.6603 L 224.03047,116.6603 L 224.22142,115.0453 L 229.01797,115.0453 L 229.20892,116.6603 z "
   id="polygon43" />
<path
   d="M 228.63892,112.14685 L 224.55298,112.14685 L 224.74297,110.5328 L 228.44893,110.5328 L 228.63892,112.14685 z "
   id="polygon45" />
<path
   d="M 228.11548,107.63435 L 225.07642,107.63435 L 225.26547,106.0203 L 227.92642,106.0203 L 228.11548,107.63435 z "
   id="polygon47" />
<path
   d="M 227.59297,103.1228 L 225.59892,103.1228 L 225.78892,101.5078 L 227.40298,101.5078 L 227.59297,103.1228 z "
   id="polygon49" />
<path
   d="M 262.17392,108.20435 L 262.79047,110.10435 L 226.69047,98.37185 L 226.59642,97.4703 L 227.40298,96.89935 L 262.17392,108.20435 z "
   id="polygon51" />
<path
   d="M 283.64297,78.65935 L 285.63893,78.65935 L 262.79047,110.10435 L 262.17392,108.20435 L 283.64297,78.65935 z "
   id="polygon53" />
<path
   d="M 262.17392,49.06685 L 262.79047,47.16685 L 285.63893,78.65935 L 283.64297,78.65935 L 262.17392,49.06685 z "
   id="polygon55" />
<path
   d="M 96.017975,173.80185 L 96.017975,171.94935 L 127.84297,153.56685 L 128.65048,154.04185 L 128.65048,154.99185 L 96.017975,173.80185 z "
   id="polygon57" />
<path
   d="M 160.47642,97.04185 L 161.28392,97.4703 L 161.28392,98.4203 L 129.45892,116.80185 L 128.65048,116.32685 L 128.65048,115.42435 L 160.47642,97.04185 z "
   id="polygon59" />
<path
   d="M 225.78892,97.04185 L 226.59642,97.4703 L 226.69047,98.37185 L 194.77142,116.80185 L 193.96392,116.32685 L 194.91392,114.85435 L 225.78892,97.04185 z "
   id="polygon61" />
<path
   d="M 262.79047,47.16685 L 262.17392,49.06685 L 227.40298,60.3728 L 226.59642,59.80185 L 227.49892,58.66185 L 262.79047,47.16685 z "
   id="polygon63" />
<g
   id="g65"
   transform="matrix(0.95,0,0,0.95,7.324075,4.66955)">
	<path
   d="M 0,186.484 L 0,169.296 L 2.281,169.296 L 2.281,176.359 L 11.172,176.359 L 11.172,169.296 L 13.453,169.296 L 13.453,186.484 L 11.172,186.484 L 11.172,178.39 L 2.281,178.39 L 2.281,186.484 L 0,186.484 z "
   id="path67" />
	<path
   d="M 16.551,178.119 C 16.551,175.266 17.317,173.034 18.849,171.421 C 20.381,169.807 22.359,169 24.782,169 C 26.369,169 27.799,169.379 29.073,170.137 C 30.347,170.896 31.318,171.952 31.987,173.308 C 32.656,174.664 32.989,176.202 32.989,177.92 C 32.989,179.663 32.637,181.222 31.934,182.597 C 31.231,183.972 30.234,185.014 28.944,185.721 C 27.654,186.428 26.263,186.782 24.77,186.782 C 23.152,186.782 21.706,186.391 20.432,185.61 C 19.158,184.829 18.193,183.761 17.536,182.41 C 16.879,181.059 16.551,179.628 16.551,178.119 z M 18.895,178.148 C 18.895,180.218 19.452,181.849 20.566,183.041 C 21.68,184.233 23.078,184.828 24.758,184.828 C 26.47,184.828 27.879,184.226 28.986,183.023 C 30.092,181.82 30.645,180.113 30.645,177.902 C 30.645,176.504 30.409,175.283 29.936,174.24 C 29.463,173.197 28.771,172.388 27.86,171.814 C 26.949,171.24 25.927,170.953 24.794,170.953 C 23.184,170.953 21.798,171.506 20.637,172.611 C 19.476,173.716 18.895,175.563 18.895,178.148 z "
   id="path69" />
</g>
<path
   d="M 39.778925,168.57685 L 38.971425,167.15185 L 62.530475,153.56685 L 63.337975,154.04185 L 63.337975,154.99185 L 39.778925,168.57685 z "
   id="polygon71" />
<path
   d="M 222.98643,22.08685 L 230.25297,22.08685 L 227.49892,58.66185 L 226.59642,59.80185 L 225.69297,58.32935 L 222.98643,22.08685 z "
   id="polygon73" />
<g
   id="g75"
   transform="matrix(0.95,0,0,0.95,7.324075,4.66955)">
	<path
   d="M 155.4,146.834 L 155.4,129.646 L 157.681,129.646 L 157.681,136.709 L 166.572,136.709 L 166.572,129.646 L 168.853,129.646 L 168.853,146.834 L 166.572,146.834 L 166.572,138.74 L 157.681,138.74 L 157.681,146.834 L 155.4,146.834 z "
   id="path77" />
</g>
<path
   d="M 164.94047,125.68435 L 157.67393,125.68435 L 157.86392,124.0703 L 164.75142,124.0703 L 164.94047,125.68435 z "
   id="polygon79" />
<path
   d="M 164.41797,121.17185 L 158.19642,121.17185 L 158.38643,119.5578 L 164.22797,119.5578 L 164.41797,121.17185 z "
   id="polygon81" />
<path
   d="M 163.89642,116.6603 L 158.71798,116.6603 L 158.90892,115.0453 L 163.70547,115.0453 L 163.89642,116.6603 z "
   id="polygon83" />
<path
   d="M 163.37392,112.14685 L 159.24048,112.14685 L 159.43047,110.5328 L 163.18392,110.5328 L 163.37392,112.14685 z "
   id="polygon85" />
<path
   d="M 162.85142,107.63435 L 159.76392,107.63435 L 159.95297,106.0203 L 162.66142,106.0203 L 162.85142,107.63435 z "
   id="polygon87" />
<path
   d="M 162.28048,103.1228 L 160.28642,103.1228 L 160.47642,101.5078 L 162.09048,101.5078 L 162.28048,103.1228 z "
   id="polygon89" />
<g
   id="g91"
   transform="matrix(0.95,0,0,0.95,7.324075,4.66955)">
	<path
   d="M 189.75,87.334 L 189.75,70.146 L 192.031,70.146 L 192.031,77.209 L 200.922,77.209 L 200.922,70.146 L 203.203,70.146 L 203.203,87.334 L 200.922,87.334 L 200.922,79.24 L 192.031,79.24 L 192.031,87.334 L 189.75,87.334 L 189.75,87.334 z "
   id="path93" />
</g>
<path
   d="M 190.30547,89.77435 L 197.57393,89.77435 L 194.91392,114.85435 L 193.96392,116.32685 L 192.96548,114.85435 L 190.30547,89.77435 z "
   id="polygon95" />
<g
   id="g97"
   transform="matrix(0.95,0,0,0.95,7.324075,4.66955)">
	<path
   d="M 272.619,9.119 C 272.619,6.266 273.385,4.034 274.916,2.421 C 276.449,0.807 278.426,0 280.85,0 C 282.436,0 283.867,0.379 285.141,1.137 C 286.414,1.896 287.385,2.952 288.054,4.308 C 288.723,5.664 289.057,7.202 289.057,8.92 C 289.057,10.663 288.705,12.222 288.001,13.597 C 287.297,14.972 286.301,16.014 285.012,16.721 C 283.721,17.428 282.33,17.782 280.838,17.782 C 279.219,17.782 277.774,17.391 276.5,16.61 C 275.225,15.829 274.26,14.761 273.604,13.41 C 272.948,12.059 272.619,10.628 272.619,9.119 z M 274.963,9.148 C 274.963,11.218 275.52,12.849 276.633,14.041 C 277.748,15.232 279.145,15.828 280.826,15.828 C 282.537,15.828 283.947,15.226 285.053,14.023 C 286.159,12.82 286.713,11.113 286.713,8.902 C 286.713,7.504 286.477,6.283 286.003,5.24 C 285.529,4.197 284.838,3.388 283.928,2.814 C 283.017,2.24 281.994,1.953 280.862,1.953 C 279.251,1.953 277.866,2.506 276.704,3.611 C 275.543,4.717 274.963,6.563 274.963,9.148 z "
   id="path99" />
</g>
<path
   d="M 267.11392,22.08685 L 268.63392,22.56185 L 259.89297,49.44685 L 258.37392,48.9728 L 267.11392,22.08685 z "
   id="polygon101" />
<path
   d="M 272.48048,23.8453 L 274.00142,24.3203 L 265.26142,51.20435 L 263.74047,50.72935 L 272.48048,23.8453 z "
   id="polygon103" />
</svg>